#!OML:ASF H:\Terrain\Patient Classification 1\Terrain2\Thursday\justin.ASF
:FULLY-SPECIFIED
:DEGREES
2746
root 30.939 17.4779 -12.655 358.021 2.83402 -0.0375605
lowerback 8.98759 -0.316357 -2.55589
upperback 2.93747 -0.59553 1.77009
thorax -1.94498 -0.304643 3.33439
lowerneck -10.4477 -3.56118 -11.2469
upperneck 37.1294 -4.95348 6.9551
head 15.1926 -2.78303 4.17371
rclavicle 7.10655e-015 8.34896e-015
rhumerus -33.3217 -9.80076 -77.9321
rradius 35.3708
rwrist -10.1053
rhand -18.4186 8.62942
rfingers 7.12502
rthumb 7.86636 -21.2042
lclavicle 7.10655e-015 8.34896e-015
lhumerus -35.7834 7.38818 79.8881
lradius 39.0434
lwrist 6.88684
lhand -20.2102 21.4093
lfingers 7.12502
lthumb 6.13689 51.3005
rfemur -24.5832 -8.01201 19.6736
rtibia 71.2754
rfoot -9.88236 -6.82249
rtoes 5.34597
lfemur -12.2231 1.5693 -21.4378
ltibia 31.1258
lfoot -13.5952 -14.0247
ltoes 11.4451
2747
root 30.9477 17.4593 -12.5693 358.14 2.92102 0.0392138
lowerback 8.95501 -0.372807 -2.65606
upperback 2.87285 -0.678345 1.78107
thorax -1.98603 -0.344469 3.41122
lowerneck -10.3199 -3.52812 -11.0877
upperneck 37.0071 -4.90697 6.8193
head 15.0853 -2.75772 4.08851
rclavicle 4.17448e-015 -1.82882e-014
rhumerus -33.2864 -9.13903 -78.3106
rradius 35.1091
rwrist -10.2114
rhand -20.4746 10.0583
rfingers 7.12502
rthumb 5.88161 -19.84
lclavicle 4.17448e-015 -1.82882e-014
lhumerus -35.7593 7.14596 79.8715
lradius 39.5628
lwrist 7.23273
lhand -19.9696 20.272
lfingers 7.12502
lthumb 6.3692 50.1562
rfemur -25.6568 -7.88521 19.7765
rtibia 70.503
rfoot -10.8833 -6.5513
rtoes 4.17819
lfemur -12.2033 1.4989 -21.5522
ltibia 31.4645
lfoot -14.0257 -14.0526
ltoes 11.1656
2748
root 30.9555 17.4402 -12.4858 358.31 3.0336 0.206976
lowerback 8.90507 -0.353495 -2.76139
upperback 2.91759 -0.661575 1.74439
thorax -1.91245 -0.338064 3.42974
lowerneck -10.7257 -3.61531 -11.0738
upperneck 37.09 -5.01369 6.86426
head 15.2371 -2.78984 4.09035
rclavicle 9.44227e-016 -7.95139e-015
rhumerus -33.0929 -9.01377 -78.4614
rradius 35.1267
rwrist -10.2274
rhand -21.6116 10.5375
rfingers 7.12502
rthumb 4.78382 -19.3885
lclavicle 9.44227e-016 -7.95139e-015
lhumerus -35.286 6.79362 79.9396
lradius 39.874
lwrist 7.47212
lhand -13.0146 32.161
lfingers 7.12502
lthumb 13.0792 61.7309
rfemur -26.7015 -7.77715 19.7372
rtibia 69.614
rfoot -11.69 -6.18756
rtoes 3.73912
lfemur -12.2208 1.32314 -21.7698
ltibia 31.7864
lfoot -14.4098 -14.0058
ltoes 11.1021
2749
root 30.9646 17.4282 -12.3933 358.31 3.07386 0.437428
lowerback 8.8371 -0.383805 -2.96967
upperback 2.99948 -0.718485 1.72428
thorax -1.78267 -0.3705 3.53065
lowerneck -10.733 -3.63041 -10.9443
upperneck 36.9559 -4.97004 6.60869
head 15.1549 -2.78251 3.95702
rclavicle -2.2413e-014 1.82882e-014
rhumerus -32.9338 -9.03473 -78.431
rradius 35.3057
rwrist -10.094
rhand -21.5796 10.3712
rfingers 7.12502
rthumb 4.81473 -19.5541
lclavicle -2.2413e-014 1.82882e-014
lhumerus -34.9222 6.83379 79.9279
lradius 40.0624
lwrist 7.48909
lhand -17.7922 25.2297
lfingers 7.12502
lthumb 8.47084 55.0398
rfemur -27.401 -7.68119 19.5787
rtibia 68.55
rfoot -12.3745 -5.89562
rtoes 3.51337
lfemur -11.9778 1.25722 -22.0625
ltibia 32.0505
lfoot -14.9684 -13.9096
ltoes 10.437
2750
root 30.9691 17.4213 -12.3 358.334 3.211 0.674749
lowerback 8.7244 -0.44693 -3.25348
upperback 3.01195 -0.824588 1.67287
thorax -1.69468 -0.426011 3.64633
lowerneck -10.4936 -3.6438 -10.7718
upperneck 36.7963 -4.98079 6.39745
head 15.0086 -2.79093 3.82775
rclavicle -2.43511e-015 1.19271e-014
rhumerus -32.9221 -8.89738 -78.5708
rradius 35.4461
rwrist -10.561
rhand -21.8517 10.1466
rfingers 7.12502
rthumb 4.55193 -19.7845
lclavicle -2.43511e-015 1.19271e-014
lhumerus -34.8946 6.70505 79.8345
lradius 40.4411
lwrist 7.73453
lhand -19.6227 22.3968
lfingers 7.12502
lthumb 6.70403 52.2706
rfemur -28.081 -7.63625 19.4794
rtibia 67.2982
rfoot -12.9737 -5.54068
rtoes 3.41167
lfemur -11.777 1.36497 -22.3504
ltibia 32.2463
lfoot -15.4589 -13.8952
ltoes 8.69472
2751
root 30.9708 17.4105 -12.2118 358.457 3.374 0.821395
lowerback 8.65482 -0.499956 -3.5234
upperback 2.95577 -0.915572 1.68616
thorax -1.70119 -0.471164 3.8213
lowerneck -10.4459 -3.62129 -10.8863
upperneck 36.8009 -4.99253 6.58415
head 15.0107 -2.78929 3.92747
rclavicle 7.25564e-015 -3.22031e-014
rhumerus -32.9196 -8.75856 -78.6497
rradius 35.5099
rwrist -11.0818
rhand -22.3893 10.1042
rfingers 7.12502
rthumb 4.03284 -19.8374
lclavicle 7.25564e-015 -3.22031e-014
lhumerus -35.0014 6.64235 79.7864
lradius 40.951
lwrist 7.8237
lhand -20.313 21.6837
lfingers 7.12502
lthumb 6.03767 51.5776
rfemur -28.8321 -7.46177 19.4975
rtibia 65.8972
rfoot -13.3934 -5.27006
rtoes 3.29497
lfemur -11.6754 1.37979 -22.5183
ltibia 32.3825
lfoot -15.8207 -13.8987
ltoes 7.52025
2752
root 30.9766 17.4027 -12.1195 358.603 3.35699 0.894081
lowerback 8.52514 -0.50594 -3.63573
upperback 2.9039 -0.928882 1.70048
thorax -1.67966 -0.47779 3.89931
lowerneck -10.2122 -3.5406 -10.8781
upperneck 36.5622 -4.94448 6.73148
head 14.8365 -2.74792 3.98885
rclavicle 8.89561e-015 5.96354e-015
rhumerus -32.8842 -9.20794 -78.4022
rradius 35.525
rwrist -9.81662
rhand -21.8515 10.0794
rfingers 7.12502
rthumb 4.55216 -19.8516
lclavicle 8.89561e-015 5.96354e-015
lhumerus -35.0316 6.72558 79.7402
lradius 41.376
lwrist 7.60285
lhand -20.5632 21.0804
lfingers 7.12502
lthumb 5.79612 50.9811
rfemur -29.5338 -7.18732 19.543
rtibia 64.4093
rfoot -13.8421 -5.03454
rtoes 3.99243
lfemur -11.5211 1.31807 -22.617
ltibia 32.4861
lfoot -16.3206 -13.757
ltoes 7.15146
2753
root 30.9858 17.3976 -12.0236 358.729 3.40012 0.9735
lowerback 8.43561 -0.551917 -3.69337
upperback 2.83335 -0.992273 1.70442
thorax -1.69608 -0.507985 3.94118
lowerneck -10.1856 -3.49377 -10.863
upperneck 36.5639 -4.89111 6.75488
head 14.8239 -2.72077 4.0048
rclavicle -3.52843e-015 -2.78299e-015
rhumerus -32.9205 -9.34747 -78.2399
rradius 35.6592
rwrist -8.81166
rhand -21.207 9.88539
rfingers 7.12502
rthumb 5.17444 -20.0314
lclavicle -3.52843e-015 -2.78299e-015
lhumerus -35.0603 6.65396 79.6952
lradius 41.647
lwrist 7.62628
lhand -20.622 20.481
lfingers 7.12502
lthumb 5.73935 50.3832
rfemur -30.1406 -7.1377 19.5769
rtibia 62.8696
rfoot -14.2729 -5.0582
rtoes 3.6006
lfemur -11.2997 1.41318 -22.7357
ltibia 32.5445
lfoot -16.7905 -13.7478
ltoes 7.51865
2754
root 30.991 17.3912 -11.9316 358.763 3.5328 1.07763
lowerback 8.51496 -0.626519 -3.81357
upperback 2.79768 -1.10364 1.72489
thorax -1.76319 -0.561637 4.04335
lowerneck -10.6376 -3.53435 -11.0897
upperneck 37.0319 -4.9108 6.88396
head 15.1745 -2.7475 4.11595
rclavicle -1.55052e-014 3.22031e-014
rhumerus -32.9139 -8.88995 -78.4118
rradius 35.7764
rwrist -10.1303
rhand -21.6615 9.87421
rfingers 7.12502
rthumb 4.73563 -20.0529
lclavicle -1.55052e-014 3.22031e-014
lhumerus -35.0409 6.50615 79.7292
lradius 41.9541
lwrist 7.7699
lhand -20.9202 20.803
lfingers 7.12502
lthumb 5.45143 50.7129
rfemur -30.6436 -7.12586 19.616
rtibia 61.2541
rfoot -14.4186 -5.4473
rtoes 2.35702
lfemur -11.0012 1.76596 -22.8319
ltibia 32.5574
lfoot -16.97 -14.1538
ltoes 8.88096
2755
root 30.9901 17.3951 -11.8421 358.73 3.61106 1.05564
lowerback 8.57872 -0.632879 -3.80164
upperback 2.87422 -1.11219 1.73834
thorax -1.71817 -0.568365 4.0518
lowerneck -10.952 -3.62446 -11.0706
upperneck 37.2369 -5.03615 6.91251
head 15.3678 -2.79375 4.11236
rclavicle 1.66482e-014 -1.19271e-014
rhumerus -32.7742 -9.08741 -78.4144
rradius 35.8951
rwrist -11.562
rhand -21.3116 9.98131
rfingers 7.12502
rthumb 5.07344 -19.938
lclavicle 1.66482e-014 -1.19271e-014
lhumerus -34.766 6.45271 79.7531
lradius 42.1509
lwrist 7.62085
lhand -20.9312 22.0262
lfingers 7.12502
lthumb 5.44078 51.9364
rfemur -31.0583 -6.95467 19.7962
rtibia 59.5273
rfoot -14.5198 -5.59079
rtoes 2.1364
lfemur -10.6211 1.94139 -22.7709
ltibia 32.5148
lfoot -16.9984 -14.3886
ltoes 9.55753
2756
root 30.9889 17.3989 -11.7468 358.752 3.71086 0.908661
lowerback 8.51395 -0.682617 -3.67125
upperback 2.9391 -1.16354 1.79472
thorax -1.61182 -0.597561 4.03922
lowerneck -11.0595 -3.59675 -10.7971
upperneck 37.1784 -4.99189 6.74525
head 15.3414 -2.75448 3.99416
rclavicle 2.03754e-015 -3.57812e-015
rhumerus -32.5868 -9.59382 -78.2076
rradius 35.8682
rwrist -11.4124
rhand -20.6353 10.27
rfingers 7.12502
rthumb 5.72642 -19.6327
lclavicle 2.03754e-015 -3.57812e-015
lhumerus -34.5787 6.48366 79.7147
lradius 42.3173
lwrist 7.54389
lhand -20.4999 23.0701
lfingers 7.12502
lthumb 5.85719 52.9692
rfemur -31.3936 -6.8217 20.0968
rtibia 57.7188
rfoot -14.6976 -5.58289
rtoes 1.85474
lfemur -10.23 1.75196 -22.605
ltibia 32.4039
lfoot -17.137 -14.2725
ltoes 9.45429
